<svg width="28" height="28" viewBox="0 0 28 28" fill="none" xmlns="http://www.w3.org/2000/svg">
<path d="M19.4833 9.33333C19.0082 7.98535 17.7613 7.06165 16.3333 7H11.6667C9.73368 7 8.16667 8.567 8.16667 10.5C8.16667 12.433 9.73368 14 11.6667 14H16.3333C18.2663 14 19.8333 15.567 19.8333 17.5C19.8333 19.433 18.2663 21 16.3333 21H11.6667C10.2387 20.9383 8.99176 20.0147 8.51667 18.6667" stroke="currentColor" stroke-width="1.5" stroke-linecap="round" stroke-linejoin="round"/>
<path d="M14.75 3.5C14.75 3.08579 14.4142 2.75 14 2.75C13.5858 2.75 13.25 3.08579 13.25 3.5H14.75ZM13.25 7C13.25 7.41421 13.5858 7.75 14 7.75C14.4142 7.75 14.75 7.41421 14.75 7H13.25ZM14.75 21C14.75 20.5858 14.4142 20.25 14 20.25C13.5858 20.25 13.25 20.5858 13.25 21H14.75ZM13.25 24.5C13.25 24.9142 13.5858 25.25 14 25.25C14.4142 25.25 14.75 24.9142 14.75 24.5H13.25ZM13.25 3.5V7H14.75V3.5H13.25ZM13.25 21V24.5H14.75V21H13.25Z" fill="currentColor"/>
</svg>
