<svg width="22" height="22" viewBox="0 0 22 22" fill="none" xmlns="http://www.w3.org/2000/svg">
<path d="M4.58331 3.83333C4.1691 3.83333 3.83331 4.16912 3.83331 4.58333C3.83331 4.99755 4.1691 5.33333 4.58331 5.33333V3.83333ZM7.33331 5.33333C7.74753 5.33333 8.08331 4.99755 8.08331 4.58333C8.08331 4.16912 7.74753 3.83333 7.33331 3.83333V5.33333ZM11 3.83333C10.5858 3.83333 10.25 4.16912 10.25 4.58333C10.25 4.99755 10.5858 5.33333 11 5.33333V3.83333ZM19.25 5.33333C19.6642 5.33333 20 4.99755 20 4.58333C20 4.16912 19.6642 3.83333 19.25 3.83333V5.33333ZM4.58331 5.33333H7.33331V3.83333H4.58331V5.33333ZM11 5.33333H19.25V3.83333H11V5.33333Z" fill="currentColor" fill-opacity="0.9"/>
<path d="M2.75 8.41671C2.33579 8.41671 2 8.75249 2 9.16671C2 9.58092 2.33579 9.91671 2.75 9.91671V8.41671ZM12.8333 9.91671C13.2475 9.91671 13.5833 9.58092 13.5833 9.16671C13.5833 8.75249 13.2475 8.41671 12.8333 8.41671V9.91671ZM16.5 8.41671C16.0858 8.41671 15.75 8.75249 15.75 9.16671C15.75 9.58092 16.0858 9.91671 16.5 9.91671V8.41671ZM17.4167 9.91671C17.8309 9.91671 18.1667 9.58092 18.1667 9.16671C18.1667 8.75249 17.8309 8.41671 17.4167 8.41671V9.91671ZM2.75 9.91671H12.8333V8.41671H2.75V9.91671ZM16.5 9.91671H17.4167V8.41671H16.5V9.91671Z" fill="currentColor" fill-opacity="0.9"/>
<path d="M4.58331 13C4.1691 13 3.83331 13.3357 3.83331 13.75C3.83331 14.1642 4.1691 14.5 4.58331 14.5V13ZM9.16665 14.5C9.58086 14.5 9.91665 14.1642 9.91665 13.75C9.91665 13.3357 9.58086 13 9.16665 13V14.5ZM12.8333 13C12.4191 13 12.0833 13.3357 12.0833 13.75C12.0833 14.1642 12.4191 14.5 12.8333 14.5V13ZM19.25 14.5C19.6642 14.5 20 14.1642 20 13.75C20 13.3357 19.6642 13 19.25 13V14.5ZM4.58331 14.5H9.16665V13H4.58331V14.5ZM12.8333 14.5H19.25V13H12.8333V14.5Z" fill="currentColor" fill-opacity="0.9"/>
<path d="M2.75 17.5833C2.33579 17.5833 2 17.9191 2 18.3333C2 18.7475 2.33579 19.0833 2.75 19.0833V17.5833ZM11 19.0833C11.4142 19.0833 11.75 18.7475 11.75 18.3333C11.75 17.9191 11.4142 17.5833 11 17.5833V19.0833ZM14.6667 17.5833C14.2525 17.5833 13.9167 17.9191 13.9167 18.3333C13.9167 18.7475 14.2525 19.0833 14.6667 19.0833V17.5833ZM17.4167 19.0833C17.8309 19.0833 18.1667 18.7475 18.1667 18.3333C18.1667 17.9191 17.8309 17.5833 17.4167 17.5833V19.0833ZM2.75 19.0833H11V17.5833H2.75V19.0833ZM14.6667 19.0833H17.4167V17.5833H14.6667V19.0833Z" fill="currentColor" fill-opacity="0.9"/>
</svg>
